<?xml version="1.0" encoding="UTF-8"?>
<svg width="310px" height="88px" viewBox="0 0 310 88" version="1.1" xmlns="http://www.w3.org/2000/svg" xmlns:xlink="http://www.w3.org/1999/xlink">
    <!-- Generator: Sketch 52.6 (67491) - http://www.bohemiancoding.com/sketch -->
    <title>Group 2</title>
    <desc>Created with Sketch.</desc>
    <g id="Page-6" stroke="none" stroke-width="1" fill="none" fill-rule="evenodd">
        <g id="manual-de-marca" transform="translate(-43.000000, -170.000000)">
            <g id="Group-2" transform="translate(43.000000, 170.000000)">
                <path d="M162.515781,47.9865236 C159.989956,54.2910948 156.051187,55.4653621 149.294634,55.4653621 L143.853661,55.4653621 C141.669829,55.4653621 139.849265,54.8333666 138.412896,53.5810995 C136.976112,52.3169053 136.251656,50.7369168 136.251656,48.8175509 C136.251656,47.7174207 136.569463,46.4417062 137.217759,44.9786835 L142.28999,33.5207677 C143.701203,30.3488636 145.646159,28.7573546 148.099705,28.7573546 C149.167539,28.7573546 150.070164,29.0733524 150.820191,29.7051445 C151.570149,30.3256195 151.938891,31.0980282 151.938891,32.0109181 C151.938891,32.7014642 151.735567,33.4855966 151.341322,34.3752424 L150.934535,35.2995848 L147.01905,44.1127563 L146.612262,45.1425442 C146.383366,45.7393685 146.256271,46.1842592 146.230977,46.4768773 C146.180111,47.5066652 146.904775,48.0216947 148.392009,48.0216947 C151.468625,48.0216947 153.515314,47.6497892 154.545034,45.367463 L159.197726,34.0355939 C160.583575,30.8404457 162.553895,29.2372131 165.083809,29.2372131 C166.126141,29.2372131 167.0174,29.5543628 167.765972,30.1967266 C168.514614,30.8392937 168.884742,31.6013341 168.884742,32.4907765 C168.884742,33.2045667 168.566865,34.2931765 167.918639,35.7796465 L162.515781,47.9865236 Z" id="Fill-318" fill="#B3DD4C"></path>
                <path d="M115.767793,28.7763415 C108.86883,28.4697634 106.279181,31.8810207 103.737626,38.6373947 L101.691145,44.0782749 C100.869601,46.2622034 100.781036,48.3666411 101.422402,50.3657688 C102.074787,52.3703178 103.29307,53.804675 105.104279,54.6670106 C106.142453,55.1612357 107.465656,55.4165141 109.090034,55.4255949 L121.809661,55.5010874 C125.333397,55.5149119 127.566916,54.2850756 128.489776,51.8316376 C128.891505,50.7636291 128.932738,49.7190001 128.618604,48.6853494 C128.31535,47.6564425 127.725196,46.940687 126.863874,46.5305608 C126.212251,46.2203233 125.395835,46.0715069 124.40818,46.0658822 L123.382757,46.0574791 L113.59401,46.0134306 L112.469142,45.9575905 C111.819945,45.9181501 111.352382,45.8453683 111.066799,45.7393129 C110.075956,45.3274926 109.862445,44.3716384 110.421899,42.8842197 C111.579268,39.8077993 112.699978,37.9281449 115.24091,37.92374 L127.683755,38.362125 C131.219895,38.411866 133.473997,37.1619029 134.425547,34.6320238 C134.817643,33.5896989 134.853609,32.5558449 134.52908,31.5186704 C134.204412,30.4812247 133.624515,29.7689254 132.785299,29.3691676 C132.111709,29.0485617 130.965081,28.8773822 129.318528,28.8577975 L115.767793,28.7763415 Z" id="Fill-319" fill="#B3DD4C"></path>
                <path d="M194.232536,48.9254157 C191.892919,54.9397406 188.105014,55.914434 181.574585,55.6313033 L176.315662,55.4030639 C174.204733,55.3116461 172.434826,54.6218454 171.026178,53.3457243 C169.617113,52.0584893 168.891271,50.4942905 168.860225,48.6309679 C168.842346,47.5630949 169.128968,46.3379345 169.732011,44.9448475 L174.449152,34.0343539 C174.676038,33.5126832 174.919002,33.0372296 175.178112,32.6084675 L184.311357,11.2055352 L184.680446,10.3387947 C185.720214,7.93550438 187.464826,6.70397394 189.902016,6.63390282 C190.916421,6.60469523 191.80373,6.87190067 192.539829,7.44663295 C193.288262,8.02116192 193.668924,8.71462205 193.694495,9.5377883 C193.714315,10.1764927 193.53871,10.9078346 193.180779,11.741708 L192.811898,12.619359 C189.717195,19.7956853 186.648756,26.9871915 183.587871,34.1801885 C183.498475,34.516923 183.372766,34.870938 183.211714,35.2432501 L182.833339,36.123815 L179.278211,44.3153594 L179.175232,44.5573555 L178.814806,45.497691 C178.603443,46.0674085 178.487713,46.4940698 178.467893,46.777065 C178.435461,47.7747991 179.144047,48.3049407 180.581733,48.3674219 C183.555231,48.4963148 185.527492,48.2210451 186.485903,46.048637 L190.799721,35.2430468 C192.087373,32.1992902 193.965941,30.7255603 196.411239,30.831548 C197.418575,30.8753932 198.285234,31.2207341 199.019322,31.8756348 C199.753411,32.5308743 200.123331,33.286138 200.137884,34.1496256 C200.149249,34.8425436 199.859716,35.8860205 199.257227,37.3015384 L194.232536,48.9254157 Z" id="Fill-320" fill="#B2DD4C"></path>
                <path d="M215.128009,55.2542034 C214.819349,55.2466813 214.504314,55.2355675 214.182488,55.2215397 L208.923426,54.9890988 C206.812705,54.8959191 205.042591,54.1932426 203.63415,52.8937418 C202.224877,51.5824496 201.499035,49.9892465 201.467989,48.0914982 C201.450318,47.0037017 201.73694,45.7558394 202.339983,44.3370009 L207.057055,33.2242904 C208.369655,30.1484799 210.223899,28.6578083 212.595255,28.7625084 C213.627608,28.8081834 214.505077,29.1591489 215.240135,29.8161504 C215.975194,30.4613604 216.344144,31.2408846 216.358835,32.1435416 C216.370062,32.8264301 216.186211,33.5930786 215.819617,34.4556175 L215.441311,35.352311 L211.799282,43.8992258 L211.422709,44.9002127 C211.211207,45.4805697 211.095685,45.9148886 211.075796,46.2032374 C211.043433,47.2194042 211.75195,47.759372 213.189497,47.8229375 C216.060502,47.9497296 217.997766,47.6925537 218.990549,45.6835997 L219.546261,44.3068445 L223.407485,34.4556175 C224.695345,31.3554109 226.573913,29.854371 229.019004,29.9623239 C230.026548,30.0068468 230.893206,30.3586255 231.627086,31.0257243 C232.361175,31.6928908 232.731303,32.46225 232.745648,33.3416629 C232.757221,34.0473889 232.467688,35.1102471 231.864991,36.5523298 L228.169393,45.2600557 C224.036724,55.4537774 219.936001,65.6688456 215.830843,75.8715802 C214.535153,79.0667285 212.665247,80.6593895 210.209138,80.649631 C209.192793,80.645565 208.335143,80.3219096 207.63619,79.6791392 C206.949017,79.048838 206.60155,78.2718211 206.605431,77.3486307 C206.60841,76.6593721 206.805221,75.847794 207.183942,74.9384281 L207.575276,73.9675297 L215.128009,55.2542034 Z" id="Fill-321" fill="#B3DD4C"></path>
                <g id="Group">
                    <path d="M44.2511028,19.18176 C48.9736862,17.07208 53.4601248,15.09032 57.6844606,13.21152 C62.6162055,14.85768 67.8229927,16.602 73.3568165,18.44336 C69.1997817,20.6356 64.7737009,23.00056 60.0690275,25.51232 C54.4656936,23.2528 49.1899486,21.13408 44.2511028,19.18176" id="Fill-322" fill="#262626"></path>
                    <path d="M12.4658183,19.96824 C18.0758587,17.8368 23.3822165,15.86136 28.4083248,13.954 C32.4608972,15.62168 36.7889853,17.37896 41.3499046,19.24416 C36.2542073,21.4592 30.820822,23.84008 25.075233,26.36864 C20.597789,24.0728 16.4147963,21.94456 12.4658183,19.96824" id="Fill-323" fill="#262626"></path>
                    <path d="M29.8553339,13.40248 C34.5435174,11.64344 38.9946092,9.96896 43.2336991,8.36064 C47.3310073,9.75624 51.6859211,11.20664 56.2645138,12.73896 C52.0310257,14.58304 47.5523982,16.54688 42.8284734,18.58696 C38.2516165,16.77456 33.9499596,15.04296 29.8553339,13.40248" id="Fill-324" fill="#262626"></path>
                    <path d="M26.4748239,27.06024 C32.2455028,24.50504 37.6860679,22.07152 42.7980183,19.8208 C47.7129578,21.85248 52.9890972,23.98864 58.6101046,26.27408 C53.5091211,28.98784 48.0462275,31.91184 42.2200826,35.002 C36.594578,32.18328 31.3491303,29.53 26.4748239,27.06024" id="Fill-325" fill="#262626"></path>
                    <path d="M44.4610532,7.9108 C48.4212349,6.41456 52.212178,4.97472 55.8169982,3.61816 C59.9259046,4.7772 64.2492587,5.99224 68.7708073,7.2724 C65.2051211,8.84664 61.4444752,10.47808 57.4901321,12.21032 C52.9198239,10.67784 48.5744569,9.26208 44.4610532,7.9108" id="Fill-326" fill="#262626"></path>
                    <path d="M26.6839853,46.25424 C26.8926734,51.43592 27.0972587,56.45168 27.2889046,61.27512 C31.7302128,64.5604 36.457767,68.03952 41.4892404,71.7388 C41.5113321,66.56888 41.5292422,61.22432 41.5428917,55.69584 C36.2549174,52.34416 31.2967413,49.2204 26.6839853,46.25424" id="Fill-327" fill="#262626"></path>
                    <path d="M11.950055,20.89936 C12.3580422,26.19856 12.7704477,31.33152 13.1539761,36.32544 C16.9582532,38.68144 20.9963083,41.1716 25.2778459,43.85704 C25.031444,38.52768 24.7893817,33.0144 24.5344587,27.32648 C20.0659303,25.04792 15.8827798,22.91104 11.950055,20.89936" id="Fill-328" fill="#262626"></path>
                    <path d="M13.2828183,37.79176 C13.6699761,42.57552 14.0202092,47.2552 14.3842495,51.79448 C18.0510055,54.4688 21.9186385,57.33064 26.0119229,60.35304 C25.8034716,55.53872 25.5741908,50.56744 25.3409651,45.42992 C21.0844385,42.72632 17.0792844,40.18288 13.2828183,37.79176" id="Fill-329" fill="#262626"></path>
                    <path d="M25.9347596,28.04448 C26.1735872,33.77632 26.3994752,39.32496 26.6041394,44.69064 C31.2666018,47.59424 36.2410312,50.6912 41.5451009,53.99896 C41.5697174,48.21672 41.6064055,42.22424 41.6211596,36.03136 C36.0290294,33.16792 30.7920239,30.52328 25.9347596,28.04448" id="Fill-330" fill="#262626"></path>
                    <path d="M2.18637248,30.74216 C2.68580367,35.2256 3.15675229,39.5964 3.64253394,43.86152 C6.69269358,46.10504 9.92621468,48.50992 13.3326826,51.00688 C12.9600422,46.47648 12.5852716,41.84984 12.1730239,37.084 C8.67069358,34.86056 5.35014679,32.73776 2.18637248,30.74216" id="Fill-331" fill="#262626"></path>
                    <path d="M58.1796312,45.49248 C57.9181596,50.65064 57.6618954,55.66888 57.4102862,60.52088 C52.754767,64.01976 47.7975376,67.74472 42.5054606,71.74904 C42.5188734,66.57928 42.5546936,61.2604 42.5849119,55.71424 C48.1502165,52.07048 53.3458789,48.67208 58.1796312,45.49248" id="Fill-332" fill="#262626"></path>
                    <path d="M73.7808202,19.404 C73.3013505,24.71632 72.8432624,29.87064 72.3727083,34.85032 C68.3865688,37.4056 64.1649945,40.12416 59.6574899,43.01592 C59.9656697,37.66408 60.2785835,32.16352 60.5698,26.46224 C65.266189,23.96824 69.6589743,21.63024 73.7808202,19.404" id="Fill-333" fill="#262626"></path>
                    <path d="M72.2450495,36.30528 C71.8133927,41.12672 71.3777119,45.78184 70.9739853,50.34 C67.1404367,53.21544 63.0721633,56.2712 58.7694018,59.51672 C59.0129633,54.6824 59.3045743,49.71592 59.5756716,44.60104 C64.0734716,41.65712 68.2772147,38.91272 72.2450495,36.30528" id="Fill-334" fill="#262626"></path>
                    <path d="M59.1202661,27.25872 C58.8125596,32.98672 58.5267083,38.54784 58.2616862,43.9248 C53.3845394,47.07056 48.1618147,50.40848 42.5958,54.02568 C42.6119743,48.24368 42.6485835,42.25128 42.6720954,36.05808 C48.5308257,32.90576 54.0109982,29.98152 59.1202661,27.25872" id="Fill-335" fill="#262626"></path>
                    <path d="M70.8603706,51.67224 C70.4439413,56.056 70.0593083,60.34264 69.6797248,64.48896 C65.9812514,67.64968 62.0561798,70.9732 57.9213156,74.45936 C58.1756073,70.07976 58.4184587,65.57808 58.6834807,60.92704 C62.9775633,57.67304 67.0194055,54.59144 70.8603706,51.67224" id="Fill-336" fill="#262626"></path>
                    <path d="M58.9223872,12.84552 C62.8679725,11.09576 66.6193083,9.42968 70.176,7.83816 C75.0241119,9.20656 80.1126294,10.63904 85.536389,12.16816 C82.0451835,13.99416 78.4113284,15.92872 74.5495339,17.97376 C69.0166569,16.16728 63.8269908,14.44 58.9223872,12.84552" id="Fill-337" fill="#B2DD4C"></path>
                    <path d="M0.992708257,14.31528 C6.3809633,12.54776 11.5403321,10.85584 16.4454881,9.24008 C19.8512459,10.64384 23.4463615,12.09536 27.2227083,13.64744 C22.2125376,15.50168 16.9144642,17.46824 11.3288037,19.54664 C7.67340917,17.71184 4.21668257,15.96816 0.992708257,14.31528" id="Fill-338" fill="#B2DD4C"></path>
                    <path d="M17.8515486,8.7684 C22.4518385,7.26512 26.8317633,5.82856 31.0167284,4.44912 C34.5113266,5.62312 38.1776092,6.85424 42.0501339,8.1328 C37.8105706,9.72336 33.3503266,11.372 28.687233,13.11288 C24.8940807,11.5876 21.2825541,10.154 17.8515486,8.7684" id="Fill-339" fill="#9AC03E"></path>
                    <path d="M32.236745,4.05176 C36.1761761,2.75712 39.9544954,1.51016 43.5619982,0.26744 C47.0786881,1.3008 50.7749523,2.3476 54.6177321,3.45176 C51.0209596,4.79944 47.2297009,6.21296 43.2690459,7.69168 C39.4052,6.4132 35.7391541,5.19944 32.236745,4.05176" id="Fill-340" fill="#829F3D"></path>
                    <path d="M27.3616495,62.89696 C27.5667083,67.5628 27.7424954,72.08056 27.9156,76.48472 C32.1493248,80.01984 36.6617211,83.79288 41.4348789,87.75208 C41.4619413,83.15064 41.4673064,78.35736 41.4775633,73.40648 C36.479622,69.68016 31.7769211,66.17408 27.3616495,62.89696" id="Fill-341" fill="#B2DD4C"></path>
                    <path d="M0.520418349,15.28016 C1.00343853,20.1492 1.53529725,24.91184 2.03898899,29.5704 C5.21010092,31.51312 8.54697982,33.6008 12.0567266,35.7892 C11.6402972,30.84848 11.2455651,25.74136 10.8052294,20.50408 C7.14959817,18.6604 3.71835596,16.90768 0.520418349,15.28016" id="Fill-342" fill="#B2DD4C"></path>
                    <path d="M14.4969963,53.3016 C14.8402862,57.68416 15.1808936,61.94432 15.5101394,66.09088 C19.0469486,69.05704 22.7664881,72.14976 26.7041046,75.4472 C26.5061468,71.07872 26.2965908,66.57928 26.0921633,61.93096 C21.9897266,58.88248 18.1474202,56.01128 14.4969963,53.3016" id="Fill-343" fill="#9AC03E"></path>
                    <path d="M3.77027156,45.28088 C4.21841835,49.40728 4.66443486,53.4372 5.1084,57.37984 C8.07863486,59.85256 11.1975156,62.47024 14.4994422,65.24088 C14.153233,61.10344 13.8048147,56.86104 13.4366716,52.51424 C10.0465358,49.98192 6.82177248,47.57656 3.77027156,45.28088" id="Fill-344" fill="#829F3D"></path>
                    <path d="M57.3373046,62.12872 C57.1067615,66.78752 56.881978,71.33264 56.6366807,75.7384 C52.1929266,79.51184 47.4647413,83.53728 42.425378,87.76296 C42.4526771,83.17016 42.4920477,78.36736 42.5200569,73.44208 C47.7688972,69.41256 52.7169743,65.66176 57.3373046,62.12872" id="Fill-345" fill="#B2DD4C"></path>
                    <path d="M85.8512752,13.19248 C85.2165321,18.0976 84.6296807,22.86136 84.0578202,27.5288 C80.7442165,29.64776 77.2291046,31.90296 73.5453064,34.25848 C73.9997651,29.31416 74.4844422,24.21176 74.9829266,18.96024 C78.7849945,16.91656 82.4021229,15.00008 85.8512752,13.19248" id="Fill-346" fill="#B2DD4C"></path>
                    <path d="M83.8766679,28.88896 C83.3345523,33.37176 82.7899119,37.75848 82.2770679,42.03944 C79.0556183,44.4448 75.6586183,47.00328 72.0853578,49.67984 C72.5152,45.14712 72.9511174,40.5008 73.4010789,35.7316 C77.0750147,33.32368 80.5813688,31.05984 83.8766679,28.88896" id="Fill-347" fill="#9AC03E"></path>
                    <path d="M80.6399908,55.40944 C77.5012275,58.05792 74.2205248,60.83224 70.7720826,63.75056 C71.1522972,59.63008 71.5635193,55.3868 71.9629853,51.00352 C75.5188092,48.30128 78.9066569,45.7168 82.1277119,43.29392 C81.6196018,47.41736 81.1179615,51.45296 80.6399908,55.40944 Z" id="Fill-348" fill="#829F3D"></path>
                </g>
                <text id="serviços-digitais" font-family="IstokWeb-Italic, Istok Web" font-size="17" font-style="italic" font-weight="normal" line-spacing="15" fill="#262626">
                    <tspan x="238" y="46">  serviços </tspan>
                    <tspan x="238" y="61">digitais</tspan>
                </text>
            </g>
        </g>
    </g>
</svg>